<svg xmlns="http://www.w3.org/2000/svg" xmlns:xlink="http://www.w3.org/1999/xlink" height="280px" version="1.1" viewBox="0 0 264 280" width="264px">
    <title id="circle_Title">Avataaar/Circle</title>
    <desc>Created with python_avatars</desc>
    <defs>
        <circle cx="120" cy="120" id="circle_path-1" r="120" />
        <path d="M-3.19744231e-14,160 L-3.19744231e-14,-1.42108547e-14 L264,-1.42108547e-14 L264,160 L252,160 C252,226.27417 198.27417,280 132,280 C65.72583,280 12,226.27417 12,160 L12,160 L-3.19744231e-14,160 Z" id="circle_path-3" />
        <path d="M100,0 C130.927946,-5.68137151e-15 156,25.072054 156,56 L156.000809,62.1660527 C161.675838,63.1185422 166,68.05429 166,74 L166,88 C166,94.0524166 161.519235,99.0582945 155.693975,99.8813638 C153.627928,119.686472 141.237929,136.421678 124.001014,144.610469 L124,163 L128,163 C167.764502,163 200,195.235498 200,235 L200,244 L0,244 L0,235 C-4.86974701e-15,195.235498 32.235498,163 72,163 L76,163 L75.9999836,144.610943 C58.7625487,136.422324 46.3721119,119.686854 44.3051107,99.8809698 C38.480765,99.0582945 34,94.0524166 34,88 L34,74 C34,68.053942 38.3246685,63.1179645 44.0001873,62.1658855 L44,56 C44,25.072054 69.072054,5.68137151e-15 100,0 Z" id="circle_path-5" />
        <path d="M83,36.3476251 C83,52.6289957 105.161905,65.8276544 132.5,65.8276544 C159.838095,65.8276544 182,52.6289957 182,36.3476251 C182,34.9853134 181.844841,33.6445843 181.544472,32.3313638 C210.784239,41.4879251 232,68.792221 232,101.051724 L232,110 L32,110 L32,101.051724 C32,68.3970853 53.7386736,40.8197864 83.5337207,32.0021267 C83.1821692,33.4207025 83,34.871494 83,36.3476251 Z" id="circle_path-7" />
        <rect height="280" id="circle_path-9" width="264" x="0" y="0" />
        <path d="M74,0 C114.869071,0 148,33.1309285 148,74 L148,84.1482318 L148,197.608051 C135.525121,187.236892 119.490913,181 102,181 L102,181 L98,181 L98,162.610951 C115.530782,154.282984 128.048193,137.114792 129.791419,116.867187 C135.569129,116.002364 140,111.018625 140,105 L140,105 L140,92 C140,87.3536213 137.359271,83.3240177 133.496777,81.3301515 C132.723933,81.0500337 131.951808,80.748163 131.180891,80.4262497 C130.794819,80.3202581 130.400778,80.2331546 130,80.1659169 L130,80.1659169 L130.000458,79.9172528 C117.224481,74.2339715 104.877985,63.0706967 96.1104311,47.8848473 C93.1752556,42.8009742 90.8310687,37.5951441 89.0661426,32.3970356 C80.4313947,42.9409152 67.7445474,53.6023901 52.3415164,62.4953343 C42.777598,68.0170651 33.1467898,72.2910056 24,75.2659587 L24.0003852,137.246608 C29.6019576,148.318362 38.7728825,157.277529 50,162.610951 L50,162.610951 L50,181 L46,181 C38.3273639,181 30.9350359,182.200142 24.0004995,184.422941 L24,230 C24,244.105888 13.5691766,255.775526 0,257.716445 L0,74 C0,33.1309285 33.1309285,0 74,0 Z" id="circle_path-11" />
    </defs>
    <g fill="none" fill-rule="evenodd" id="circle_Avataaar/Circle" stroke="none" stroke-width="1">
        <g id="circle_Circle" transform="translate(12.000000, 40.000000)">
            <mask fill="white" id="circle_mask-2">
                <use xlink:href="#circle_path-1" />
            </mask>
            <use fill="#ff0000" id="circle_Background-Color" xlink:href="#circle_path-1" />
            <g fill="" id="circle_Fabric-Color" mask="url(#circle_mask-2)">
                <rect height="240" id="circle_ðŸ–Color" width="240" x="0" y="0" />
            </g>
        </g>
        <mask fill="white" id="circle_mask-4">
            <use xlink:href="#circle_path-3" />
        </mask>
        <g id="circle_Mask" />
        <g id="circle_Avataaar" mask="url(#circle_mask-4)">
            <g id="circle_Body" transform="translate(32.000000, 36.000000)">
                <mask fill="white" id="circle_mask-6">
                    <use xlink:href="#circle_path-5" />
                </mask>
                <use fill="#D0C6AC" xlink:href="#circle_path-5" />
                <g fill="#00ffd5" id="circle_Skin-Color" mask="url(#circle_mask-6)">
                    <g id="circle_Color" transform="translate(-32.000000, 0.000000)">
                        <rect height="244" width="264" x="0" y="0" />
                    </g>
                </g>
                <path d="M44,94 C44,124.927946 69.072054,150 100,150 C130.927946,150 156,124.927946 156,94 L156,94 L156,102 C156,132.927946 130.927946,158 100,158 C69.072054,158 44,132.927946 44,102 Z" fill="#000000" fill-opacity="0.100000001" id="circle_Neck-Shadow" mask="url(#circle_mask-6)" />
            </g>
            <g id="circle_Clothing" transform="translate(0.000000, 170.000000)">
                
            <defs>
        <path d="M99,32.5 C99,44.3741221 113.998461,54 132.5,54 C151.001539,54 166,44.3741221 166,32.5 C166,31.4019929 165.871751,30.3232102 165.624342,29.2694852 C202.75978,32.1370674 232,63.1796858 232,101.051724 L232,110 L32,110 L32,101.051724 C32,62.8342194 61.7761079,31.571298 99.3946469,29.196636 C99.1341902,30.2738104 99,31.3768477 99,32.5 Z" id="graphic_shirt_path-1" />
    </defs>
    <g fill="none" fill-rule="evenodd" id="graphic_shirt_Clothing/Graphic-Shirt" stroke="none" stroke-width="1">
        <mask fill="white" id="graphic_shirt_mask-2">
            <use xlink:href="#graphic_shirt_path-1" />
        </mask>
        <use fill="#E6E6E6" id="graphic_shirt_Clothes" xlink:href="#graphic_shirt_path-1" />
        <g fill="#929598" id="graphic_shirt_Fabric-Color" mask="url(#graphic_shirt_mask-2)">
            <rect height="110" id="graphic_shirt_ðŸ–Color" width="264" x="0" y="0" />
        </g>
        <g fill="#FFFFFF" id="graphic_shirt_Graphic" transform="translate(77.000000, 58.000000)">
        <g fill="none" fill-rule="evenodd" font-family="Avenir-Heavy, Avenir" font-size="28" font-weight="600" id="custom_text_Clothing/Graphic/-Your-Text" letter-spacing="-0.4590163" stroke="none" stroke-width="1">
        <text fill="#FFFFFF" id="custom_text_Graphic-Text">
            <tspan x="22.4315408" y="31" />
        </text>
    </g>
</g>
    </g>
</g>
            <g fill="#000000" id="circle_Face" transform="translate(76.000000, 82.000000)">
                <g id="circle_Mouth" transform="translate(2.000000, 52.000000)">    
                    
                <g fill="none" fill-opacity="0.699999988" fill-rule="evenodd" id="default_Mouth/Default" stroke="none" stroke-width="1">
        <path d="M40,15 C40,22.7319865 46.2680135,29 54,29 L54,29 C61.7319865,29 68,22.7319865 68,15" fill="#000000" id="default_Mouth" />
    </g>
</g>
                <g fill-opacity="0.16" id="circle_Nose" transform="translate(28.000000, 40.000000)">
                    
                <g fill="none" fill-opacity="0.16" fill-rule="evenodd" id="default_Nose/Default" stroke="none" stroke-width="1">
        <path d="M16,8 C16,12.418278 21.372583,16 28,16 L28,16 C34.627417,16 40,12.418278 40,8" fill="#000000" id="default_Nose" />
    </g>
</g>
                <g id="circle_Eyes" transform="translate(0.000000, 8.000000)">
                    
                <g fill="none" fill-opacity="0.599999964" fill-rule="evenodd" id="default_Eyes/Default-ðŸ˜€" stroke="none" stroke-width="1">
        <circle cx="30" cy="22" fill="#000000" id="default_Eye" r="6" />
        <circle cx="82" cy="22" fill="#000000" id="default_Eye" r="6" />
    </g>
</g>
                <g fill-opacity="0.599999964" id="circle_Eyebrow">
                    
                <g fill="none" fill-opacity="0.599999964" fill-rule="evenodd" id="default_Eyebrow/Outline/Default" stroke="none" stroke-width="1">
        <g fill="#000000" fill-rule="nonzero" id="default_I-Browse" transform="translate(12.000000, 6.000000)">
            <path d="M3.63024536,11.1585767 C7.54515501,5.64986673 18.2779197,2.56083721 27.5230268,4.83118046 C28.5957248,5.0946055 29.6788665,4.43856013 29.9422916,3.36586212 C30.2057166,2.2931641 29.5496712,1.21002236 28.4769732,0.94659732 C17.7403633,-1.69001789 5.31209962,1.88699832 0.369754639,8.84142326 C-0.270109626,9.74178291 -0.0589363917,10.9903811 0.84142326,11.6302454 C1.74178291,12.2701096 2.9903811,12.0589364 3.63024536,11.1585767 Z" id="default_Eyebrow" />
            <path d="M61.6302454,11.1585767 C65.545155,5.64986673 76.2779197,2.56083721 85.5230268,4.83118046 C86.5957248,5.0946055 87.6788665,4.43856013 87.9422916,3.36586212 C88.2057166,2.2931641 87.5496712,1.21002236 86.4769732,0.94659732 C75.7403633,-1.69001789 63.3120996,1.88699832 58.3697546,8.84142326 C57.7298904,9.74178291 57.9410636,10.9903811 58.8414233,11.6302454 C59.7417829,12.2701096 60.9903811,12.0589364 61.6302454,11.1585767 Z" id="default_Eyebrow" transform="translate(73.000154, 6.039198) scale(-1, 1) translate(-73.000154, -6.039198) " />
        </g>
    </g>
</g>
            </g>
            <g id="circle_Top">
                
            <defs>
        <path d="M93.0001685,1 C117.30504,1.44935656 137.861928,4.81215989 146.000169,15 C158.324059,30.4276364 186.085192,107.014914 186.000363,126 C185.884594,150.800081 172.952646,163.439362 163.000169,177 C152.721248,174.335052 135.145932,171.815843 117.000506,170.317477 L117.001014,161.610469 C135.730856,152.71243 148.737817,133.723415 148.996083,111.669239 L149,111 L149,73 C149,71.6549229 148.952578,70.3209219 148.859314,68.9995777 L72.058097,69 L69.2529753,47.5561285 L65.3735517,69 L37.140686,68.9995777 C37.0688668,70.0170994 37.0242316,71.0421267 37.0075024,72.0739376 L37,73 L37,111 C37,133.339161 50.0804138,152.623228 68.9999836,161.610943 L69.0005583,170.317398 C50.8548508,171.815755 33.2791001,174.335005 23,177 C13.047523,163.439362 0.115574613,150.800081 -0.000177961792,126 C-0.0850232975,107.014914 30.3189583,28.7950013 41,16 C48.9231015,6.50878211 68.6952966,0.550643437 93.0001685,1 Z" id="mia_wallace_path-1" />
    </defs>
    <g fill="none" fill-rule="evenodd" id="mia_wallace_Top/Long-Hair/Mia-Wallace" stroke="none" stroke-width="1">
        <path d="M69.0330562,76.212888 C81.9708809,43.1292208 95.6458945,26.5873873 110.058097,26.5873873 C110.596882,26.5873873 139.311316,26.3494141 158.112657,26.226792 C178.767149,35.5853581 193,55.3036503 193,78.114622 L193,93 L110.058097,93 L107.252975,69.820435 L103.373552,93 L69,93 L69,78.114622 C69,77.478246 69.0110772,76.844277 69.0330621,76.2128728 L69.0330562,76.212888 Z" fill="#000000" fill-opacity="0.16" id="mia_wallace_Shadow" />
        <g id="mia_wallace_Hair" transform="translate(39.000000, 19.000000)">
            <mask fill="white" id="mia_wallace_mask-2">
                <use xlink:href="#mia_wallace_path-1" />
            </mask>
            <use fill="#E6E6E6" id="mia_wallace_Combined-Shape" xlink:href="#mia_wallace_path-1" />
            <g fill="#000000" id="mia_wallace_Hair-Color" mask="url(#mia_wallace_mask-2)">
                <g id="mia_wallace_Color" transform="translate(-39.000000, -19.000000)">
                    <rect height="280" width="266" x="0" y="0" />
                </g>
            </g>
        </g>
        <g id="mia_wallace_Facial-Hair" transform="translate(49.000000, 72.000000)" />
        <g id="mia_wallace_Accessory" transform="translate(62.000000, 85.000000)" />
    </g>
</g>
        </g>
    </g>
</svg>